PathFileType	4	(X/Y/Z)	C:/Users/opensim2020/Desktop/walking_exp_matlab/subject06_walking13_straight_04.trc	
DataRate	CameraRate	NumFrames	NumMarkers	Units	OrigDataRate	OrigDataStartFrame	OrigNumFrames	
100.00	100.00	4	50	mm	100.00	2885	204	
Frame#	Time	LFHD			RFHD			LBHD			RBHD			C7			T10			CLAV			STRN			RBAK			LSHO			LUPA			LELB			LFRM			LWRA			LWRB			LFIN			RSHO			RUPA			RELB			RFRM			RWRA			RWRB			RFIN			LASI			RASI			LPSI			RPSI			LTHI			LKNE			LTIB			LANK			LHEE			LTOE			RTHI			RKNE			RTIB			RANK			RHEE			RTOE			*39			*40			*41			*42			*43			*44			*45			*46			*47			*48			*49			
		X1	Y1	Z1	X2	Y2	Z2	X3	Y3	Z3	X4	Y4	Z4	X5	Y5	Z5	X6	Y6	Z6	X7	Y7	Z7	X8	Y8	Z8	X9	Y9	Z9	X10	Y10	Z10	X11	Y11	Z11	X12	Y12	Z12	X13	Y13	Z13	X14	Y14	Z14	X15	Y15	Z15	X16	Y16	Z16	X17	Y17	Z17	X18	Y18	Z18	X19	Y19	Z19	X20	Y20	Z20	X21	Y21	Z21	X22	Y22	Z22	X23	Y23	Z23	X24	Y24	Z24	X25	Y25	Z25	X26	Y26	Z26	X27	Y27	Z27	X28	Y28	Z28	X29	Y29	Z29	X30	Y30	Z30	X31	Y31	Z31	X32	Y32	Z32	X33	Y33	Z33	X34	Y34	Z34	X35	Y35	Z35	X36	Y36	Z36	X37	Y37	Z37	X38	Y38	Z38	X39	Y39	Z39	X40	Y40	Z40	X41	Y41	Z41	X42	Y42	Z42	X43	Y43	Z43	X44	Y44	Z44	X45	Y45	Z45	X46	Y46	Z46	X47	Y47	Z47	X48	Y48	Z48	X49	Y49	Z49	X50	Y50	Z50	

26	0.250	1508.35425	1056.59399	1654.87122	1377.80786	1067.02576	1638.30493	1521.84570	1188.94031	1599.01257	1393.75647	1197.84119	1588.39026	1465.13501	1193.72778	1438.12573	1453.04932	1223.22754	1107.92957	1461.12183	1080.77283	1362.60217	1470.44519	1040.11584	1186.90466	1390.45642	1265.54065	1265.01563	1624.29724	1134.00671	1394.86414	1703.80823	1088.97681	1201.78015	1722.96265	1052.23792	1096.36523	1739.92493	934.76868	1005.10730	1690.30994	813.27942	977.56830	1725.87122	845.71112	926.39008	1724.77478	757.00250	909.58722	1300.00793	1130.14172	1391.98022	1220.77112	1202.55786	1200.29077	1211.04504	1214.95862	1078.05505	1193.74194	1224.67542	957.65338	1221.41907	1191.47388	808.14703	1185.13635	1247.01563	821.31110	1182.00281	1227.73999	738.89203	1572.51465	1052.61731	947.14215	1349.75830	1033.31323	957.78217	1526.80481	1207.87952	975.67584	1358.35217	1185.83667	978.10278	1623.81604	1170.77014	643.56897	1605.70459	1209.42944	482.23120	1603.98035	1362.17981	271.09836	1562.94373	1444.73743	116.71436	1520.40210	1488.13977	120.41710	1552.30042	1321.70264	38.79096	1287.37073	1022.77222	631.13562	1319.39099	984.75751	514.93341	1321.04602	964.47815	251.31781	1365.23450	924.28436	70.97846	1415.85120	952.42438	44.55817	1354.28918	769.75183	55.01208	1455.92371	1161.83740	1689.86975																														 
27	0.260	1507.52307	1046.43323	1656.13281	1376.92542	1056.62427	1639.62048	1520.68628	1178.72388	1600.15771	1392.64612	1187.29919	1589.60547	1463.93481	1183.16736	1439.42688	1452.43384	1211.89172	1108.62109	1459.84485	1070.49585	1363.81860	1469.12366	1029.22241	1188.11975	1389.10181	1254.99365	1265.31482	1623.39392	1123.42542	1395.32056	1702.23230	1079.46057	1201.32422	1721.28674	1043.72021	1095.53882	1738.37634	926.88654	1003.54132	1689.04785	805.43774	975.35620	1724.42261	838.36487	924.28192	1723.63354	749.74042	907.09698	1298.66870	1119.71191	1392.88062	1219.42065	1190.73621	1200.37720	1209.49976	1202.19116	1077.97900	1192.19397	1211.59119	957.67297	1219.88525	1178.04846	808.15070	1183.41272	1233.29065	821.58807	1180.22046	1213.92236	739.10358	1571.73145	1040.98218	947.60535	1349.40027	1021.15906	958.87122	1526.51208	1195.98108	976.18097	1357.95984	1174.31970	980.02069	1622.86047	1158.77686	643.75574	1604.92114	1196.92444	482.25177	1603.49438	1354.70251	275.14938	1563.64575	1440.55005	122.30246	1521.04443	1483.43726	127.49451	1552.21448	1320.82959	38.74686	1285.85840	1011.77252	633.55731	1317.21350	974.70624	516.95917	1318.97021	956.64606	253.06175	1363.99536	921.88074	71.30820	1414.47998	950.79535	45.33451	1353.45349	767.83606	52.19981	1454.85242	1151.60864	1691.10791																														 
28	0.270	1506.67151	1036.10315	1657.50049	1376.05957	1046.04602	1641.07983	1519.38354	1168.50903	1601.73193	1391.30554	1176.72949	1591.29810	1462.84827	1172.64099	1441.04260	1451.85901	1200.68396	1109.77649	1458.62708	1060.06409	1365.35718	1467.80786	1018.14008	1189.87500	1387.68420	1244.39392	1266.39380	1622.33154	1112.47375	1396.33362	1700.49939	1070.11841	1201.48694	1719.47778	1035.43433	1095.22925	1736.67114	919.56506	1001.96191	1687.83325	798.25842	972.68903	1722.90259	831.88336	921.83948	1722.58362	743.43079	903.97473	1297.46350	1109.41589	1394.30334	1218.05298	1178.63391	1201.00256	1207.91223	1189.02417	1078.60339	1190.61279	1197.94849	958.07666	1218.32678	1164.14648	808.75153	1181.85388	1219.29614	821.82300	1178.31323	1199.49280	739.64075	1570.68396	1029.41833	948.63324	1348.62415	1009.05615	961.13586	1526.20557	1184.12158	976.98047	1357.87695	1162.84045	982.22833	1621.81519	1146.10999	644.08789	1604.48450	1182.91284	482.39185	1603.63232	1346.17566	279.97638	1564.07617	1435.43884	128.58484	1521.20813	1477.50549	135.39130	1552.04944	1320.05835	38.67987	1283.95911	1001.06873	635.99066	1315.35742	964.28839	519.25970	1316.96887	950.57025	254.19637	1362.99011	920.72766	71.49432	1413.52014	950.28717	45.81917	1353.44214	767.26758	49.46421	1453.74744	1141.02087	1692.68579																														 
29	0.280	1505.82959	1025.77112	1658.85547	1375.23438	1035.13110	1642.71399	1518.01794	1158.37646	1603.47742	1389.88733	1166.12402	1593.24292	1461.76233	1162.20276	1442.64502	1451.17090	1189.51038	1111.23462	1457.35681	1049.64954	1367.03149	1466.46655	1006.99695	1191.69543	1386.63391	1233.93848	1268.03723	1621.10803	1101.30676	1397.77173	1698.53101	1060.79187	1202.12939	1717.37378	1027.30139	1095.33606	1734.87927	912.85132	1000.45032	1686.67859	791.82050	969.56189	1721.41064	826.27893	919.04053	1721.54138	738.00012	900.11066	1296.37451	1099.23743	1396.09912	1216.74744	1166.28137	1202.01721	1206.49268	1175.48010	1079.58972	1189.06848	1183.71484	959.06757	1216.70813	1149.49207	809.69299	1179.71338	1204.68054	822.90894	1176.21436	1184.71667	740.65460	1569.21521	1017.68677	950.08801	1347.53979	996.94250	964.19482	1525.86206	1172.37036	978.19330	1357.69299	1151.40662	984.58228	1620.88257	1132.79590	644.49878	1604.50000	1167.62622	482.51703	1603.13159	1336.06543	284.66754	1564.31775	1429.09412	135.48991	1520.92981	1470.16479	144.02528	1551.70166	1319.26587	38.50821	1282.44263	990.44293	638.37537	1313.95679	954.11792	521.03802	1315.15588	945.64105	254.81488	1362.31531	919.86981	71.44322	1412.64514	950.02057	46.02332	1353.44739	766.50031	47.63920	1452.53113	1130.32922	1694.41565																														 
